<svg xmlns="http://www.w3.org/2000/svg" width="32" height="32" viewBox="0 0 80 80" fill="none">
  <rect width="80" height="80" fill="black"/>
  <g fill="white">
    <path d="M44 8a4 4 0 1 0-8 0 4 4 0 0 0 8 0" />
    <path d="M20 20a4 4 0 1 0-8 0 4 4 0 0 0 8 0M68 20a4 4 0 1 0-8 0 4 4 0 0 0 8 0" />
    <path d="M8 40a4 4 0 1 0-8 0 4 4 0 0 0 8 0M80 40a4 4 0 1 0-8 0 4 4 0 0 0 8 0" />
    <path d="M20 60a4 4 0 1 0-8 0 4 4 0 0 0 8 0M68 60a4 4 0 1 0-8 0 4 4 0 0 0 8 0" />
    <path d="M44 72a4 4 0 1 0-8 0 4 4 0 0 0 8 0" />
    <path d="M44 20a4 4 0 1 0-8 0 4 4 0 0 0 8 0M44 60a4 4 0 1 0-8 0 4 4 0 0 0 8 0" />
    <path d="M20 40a4 4 0 1 0-8 0 4 4 0 0 0 8 0M68 40a4 4 0 1 0-8 0 4 4 0 0 0 8 0" />
  </g>
</svg>
